<svg width="68" height="68" viewBox="0 0 68 68" fill="none" xmlns="http://www.w3.org/2000/svg">
<path d="M24.5958 20.7549C25.4182 20.7549 26.1662 21.066 26.7344 21.5744L26.8148 21.6752C26.1998 22.1704 25.4255 22.4772 24.5811 22.5064C24.5329 22.5094 24.4877 22.5094 24.4394 22.5094V22.5196C23.5162 22.6072 23.2007 23.2763 23.2007 23.957C23.2007 24.743 23.69 25.4004 24.5738 25.4354C25.7133 25.412 26.7841 25.0994 27.7161 24.575L27.7263 24.594C27.4283 26.0504 26.1399 27.1446 24.5958 27.1446C22.8311 27.1446 21.4009 25.7144 21.4009 23.9497C21.4009 22.185 22.8311 20.7549 24.5958 20.7549Z" fill="#E4BC07"/>
<path d="M46.354 24.575L46.3643 24.594C46.0662 26.0504 44.7778 27.1446 43.2337 27.1446C41.469 27.1446 40.0388 25.7144 40.0388 23.9497C40.0388 22.185 41.469 20.7549 43.2337 20.7549C44.0561 20.7549 44.8041 21.066 45.3723 21.5744L45.4527 21.6752C44.8377 22.1704 44.0634 22.4772 43.2191 22.5064C43.1709 22.5094 43.1256 22.5094 43.0774 22.5094V22.5196C42.1541 22.6072 41.8386 23.2763 41.8386 23.957C41.8386 24.743 42.328 25.4004 43.2118 25.4354C44.3512 25.412 45.422 25.0994 46.354 24.575Z" fill="#E4BC07"/>
<path d="M46.8838 18.7038C46.8838 18.6132 46.8809 18.5227 46.8736 18.4321C46.7348 16.457 45.0899 14.8968 43.0768 14.8968C41.0638 14.8968 39.5621 16.3241 39.3064 18.1764V18.4379H36.3614V18.1925C36.6302 14.7289 39.527 12 43.0608 12C46.5946 12 49.6375 14.8647 49.7763 18.4511C49.7792 18.5387 49.7821 18.6264 49.7821 18.7169C49.7821 21.2311 48.4001 23.4238 46.355 24.5749C45.423 25.0994 44.3522 25.4105 43.2127 25.4354C42.3289 25.4003 41.8395 24.7429 41.8395 23.957C41.8395 23.2748 42.1536 22.6072 43.0783 22.5195V22.5093C43.1265 22.5093 43.1718 22.5093 43.22 22.5064C44.0644 22.4772 44.8386 22.1704 45.4536 21.6752C46.3272 20.9798 46.8867 19.9075 46.8867 18.7038H46.8838Z" fill="#002140"/>
<path d="M20.6938 18.0041V18.4379H17.7093C17.7122 18.3547 17.7166 18.2758 17.7224 18.1925C17.9927 14.7289 20.8895 12 24.4219 12C27.9542 12 30.9898 14.8603 31.1373 18.4408C31.1403 18.5314 31.1432 18.6249 31.1432 18.7184C31.1432 21.2325 29.7612 23.4252 27.7161 24.5764C26.784 25.1008 25.7132 25.412 24.5738 25.4368C23.69 25.4018 23.2006 24.7444 23.2006 23.9584C23.2006 23.2762 23.5147 22.6086 24.4394 22.521V22.5107C24.4876 22.5107 24.5329 22.5107 24.5811 22.5078C25.4255 22.4786 26.1997 22.1718 26.8147 21.6766C27.6883 20.9812 28.2478 19.909 28.2478 18.7053C28.2478 18.6147 28.2449 18.527 28.2376 18.4394C28.1017 16.4614 26.4539 14.8983 24.4409 14.8983C22.5797 14.8983 21.0254 16.2379 20.6967 18.0055L20.6938 18.0041Z" fill="#002140"/>
<path d="M52.302 28.585H52.6775V52.8305C52.6775 54.5879 51.24 56.0254 49.4826 56.0254H18.282C16.5246 56.0254 15.0871 54.5879 15.0871 52.8305V28.585H52.302ZM49.357 47.8973V43.2007H44.6575V47.8973H49.357ZM49.357 41.5076V36.811H44.6575V41.5076H49.357ZM49.357 35.1178V30.4212H44.6575V35.1178H49.357ZM42.789 54.2885V49.5919H38.0924V54.2885H42.789ZM42.789 47.8987V43.2021H38.0924V47.8987H42.789ZM42.789 41.509V36.8124H38.0924V41.509H42.789ZM42.789 35.1193V30.4227H38.0924V35.1193H42.789ZM36.2226 54.2899V49.5933H31.523V54.2899H36.2226ZM36.2226 47.9002V43.2036H31.523V47.9002H36.2226ZM36.2226 41.5105V36.8139H31.523V41.5105H36.2226ZM36.2226 35.1208V30.4242H31.523V35.1208H36.2226ZM29.6546 54.2914V49.5948H24.9551V54.2914H29.6546ZM29.6546 47.9017V43.2051H24.9551V47.9017H29.6546ZM29.6546 41.5119V36.8153H24.9551V41.5119H29.6546ZM29.6546 35.1222V30.4256H24.9551V35.1222H29.6546ZM23.2649 54.2928V49.5962H18.5639V54.2928H23.2634H23.2649ZM23.2649 47.9031V43.2065H18.5639V47.9031H23.2634H23.2649ZM23.2649 41.5134V36.8168H18.5639V41.5134H23.2634H23.2649Z" fill="#FFFAF0"/>
<path d="M49.8004 18.4509C51.4117 18.6131 52.6782 19.9819 52.6782 21.6326V28.5848H43.2339V27.1444C44.778 27.1444 46.0664 26.0502 46.3645 24.5938L46.3542 24.5748C48.3994 23.4251 49.7814 21.2309 49.7814 18.7168C49.7814 18.6262 49.7784 18.5386 49.7755 18.4509H49.7989H49.8004Z" fill="#FED607"/>
<path d="M49.3571 43.2004H44.6576V47.897H49.3571V43.2004Z" fill="#FEE45E"/>
<path d="M49.3571 36.8093H44.6576V41.5059H49.3571V36.8093Z" fill="#FEE45E"/>
<path d="M49.3571 30.4199H44.6576V35.1165H49.3571V30.4199Z" fill="#FEE45E"/>
<path d="M46.8841 18.7038C46.8841 19.9076 46.3246 20.9798 45.451 21.6752L45.3707 21.5744C44.8039 21.066 44.0559 20.7549 43.232 20.7549C41.4673 20.7549 40.0371 22.185 40.0371 23.9497C40.0371 25.7144 41.4673 27.1446 43.232 27.1446V28.585H24.5931V27.1446C26.1372 27.1446 27.4257 26.0504 27.7237 24.594L27.7135 24.575C29.7587 23.4253 31.1406 21.2311 31.1406 18.717C31.1406 18.6235 31.1377 18.53 31.1348 18.4394L31.2487 18.4365H46.7848L46.8695 18.4307C46.8768 18.5212 46.8797 18.6118 46.8797 18.7024L46.8841 18.7038Z" fill="#FED607"/>
<path d="M42.7888 49.5903H38.0922V54.2869H42.7888V49.5903Z" fill="#FEE45E"/>
<path d="M42.7888 43.2004H38.0922V47.897H42.7888V43.2004Z" fill="#FEE45E"/>
<path d="M42.7888 36.8093H38.0922V41.5059H42.7888V36.8093Z" fill="#FEE45E"/>
<path d="M42.7888 30.4199H38.0922V35.1165H42.7888V30.4199Z" fill="#FEE45E"/>
<path d="M36.2226 49.5903H31.5231V54.2869H36.2226V49.5903Z" fill="#FEE45E"/>
<path d="M36.2226 43.2004H31.5231V47.897H36.2226V43.2004Z" fill="#FEE45E"/>
<path d="M36.2226 36.8093H31.5231V41.5059H36.2226V36.8093Z" fill="#FEE45E"/>
<path d="M36.2226 30.4199H31.5231V35.1165H36.2226V30.4199Z" fill="#FEE45E"/>
<path d="M29.6544 49.5903H24.9549V54.2869H29.6544V49.5903Z" fill="#FEE45E"/>
<path d="M29.6544 43.2004H24.9549V47.897H29.6544V43.2004Z" fill="#FEE45E"/>
<path d="M29.6544 36.8093H24.9549V41.5059H29.6544V36.8093Z" fill="#FEE45E"/>
<path d="M29.6544 30.4199H24.9549V35.1165H29.6544V30.4199Z" fill="#FEE45E"/>
<path d="M23.2634 49.5903H18.5639V54.2869H23.2634V49.5903Z" fill="#FEE45E"/>
<path d="M23.2634 43.2004H18.5639V47.897H23.2634V43.2004Z" fill="#FEE45E"/>
<path d="M23.2634 36.8093H18.5639V41.5059H23.2634V36.8093Z" fill="#FEE45E"/>
<path d="M24.5957 28.585H15.0871V21.6328C15.0871 20.0697 16.2237 18.7623 17.7093 18.4906C17.8963 18.4555 18.0877 18.438 18.282 18.438H28.2347C28.242 18.5256 28.2449 18.6133 28.2449 18.7039C28.2449 19.9076 27.6854 20.9799 26.8118 21.6752L26.7315 21.5744C26.1647 21.066 25.4167 20.7549 24.5928 20.7549C22.8281 20.7549 21.398 22.185 21.398 23.9497C21.398 25.7144 22.8281 27.1446 24.5928 27.1446V28.585H24.5957Z" fill="#FED607"/>
<path d="M31.2502 18.438H36.3603H39.3053H46.7863" stroke="#002140" stroke-miterlimit="10"/>
<path d="M17.8001 18.438H19.4743H19.5049H28.232H28.2452" stroke="#002140" stroke-miterlimit="10"/>
<path d="M18.2814 56.0254C16.524 56.0254 15.0866 54.588 15.0866 52.8306V21.6328C15.0866 20.0697 16.2231 18.7623 17.7088 18.4906C17.8958 18.4555 18.0871 18.438 18.2814 18.438" stroke="#002140" stroke-miterlimit="10"/>
<path d="M49.734 18.4512C51.3804 18.6133 52.6762 19.9821 52.6762 21.6314V52.8175C52.6762 54.5734 51.2066 56.0108 49.4112 56.0108H17.7153" stroke="#002140" stroke-miterlimit="10"/>
<path d="M14.9999 28.585H17.0202H26.0336H43.7039H52.301" stroke="#002140" stroke-miterlimit="10"/>
<path d="M17.704 18.7183C17.704 18.6438 17.704 18.5664 17.7099 18.4919C17.707 18.4729 17.7099 18.4568 17.7099 18.4393C17.7128 18.356 17.7172 18.2771 17.723 18.1938" stroke="#002140" stroke-miterlimit="10"/>
<path d="M17.721 18.1925C17.9912 14.7289 20.8881 12 24.4204 12C27.9527 12 30.9884 14.8603 31.1359 18.4408C31.1388 18.5314 31.1417 18.6249 31.1417 18.7184C31.1417 21.2325 29.7598 23.4252 27.7146 24.5764C26.7826 25.1008 25.7118 25.412 24.5723 25.4368C24.5212 25.4397 24.4715 25.4397 24.4204 25.4397" stroke="#002140" stroke-miterlimit="10"/>
<path d="M20.6664 18.178C20.6737 18.1196 20.6824 18.0641 20.6926 18.0056C21.0199 16.238 22.5757 14.8984 24.4368 14.8984C26.4498 14.8984 28.0976 16.4615 28.2335 18.4395C28.2408 18.5272 28.2437 18.6148 28.2437 18.7054C28.2437 19.9091 27.6842 20.9814 26.8106 21.6767C26.1956 22.172 25.4214 22.4787 24.577 22.508C24.5288 22.5109 24.4835 22.5109 24.4353 22.5109" stroke="#002140" stroke-miterlimit="10"/>
<path d="M24.8308 25.4295C24.7796 25.4353 24.73 25.4368 24.6789 25.4368C24.6409 25.4368 24.6073 25.4368 24.5722 25.4339C23.6884 25.3988 23.199 24.7414 23.199 23.9555C23.199 23.2733 23.5131 22.6057 24.4378 22.518C24.4831 22.5122 24.5313 22.5107 24.5795 22.5078" stroke="#002140" stroke-miterlimit="10"/>
<path d="M36.3599 18.1925C36.6287 14.7289 39.5255 12 43.0593 12C46.5931 12 49.636 14.8647 49.7748 18.4511C49.7777 18.5387 49.7806 18.6264 49.7806 18.7169C49.7806 21.2311 48.3987 23.4238 46.3535 24.5749C45.4215 25.0994 44.3507 25.4105 43.2112 25.4354C43.1601 25.4383 43.1104 25.4383 43.0593 25.4383" stroke="#002140" stroke-miterlimit="10"/>
<path d="M39.3052 18.178C39.5609 16.3242 41.1532 14.8984 43.0757 14.8984C44.9981 14.8984 46.7336 16.4586 46.8724 18.4337C46.8797 18.5242 46.8826 18.6148 46.8826 18.7054C46.8826 19.9091 46.3231 20.9814 45.4495 21.6767C44.8345 22.172 44.0603 22.4787 43.2159 22.508C43.1677 22.5109 43.1224 22.5109 43.0742 22.5109" stroke="#002140" stroke-miterlimit="10"/>
<path d="M43.4687 25.4295C43.4176 25.4353 43.3679 25.4368 43.3168 25.4368C43.2788 25.4368 43.2452 25.4368 43.2101 25.4339C42.3263 25.3988 41.8369 24.7414 41.8369 23.9555C41.8369 23.2733 42.151 22.6057 43.0757 22.518C43.121 22.5122 43.1692 22.5107 43.2174 22.5078" stroke="#002140" stroke-miterlimit="10"/>
<path d="M29.0104 31.064H25.6139V34.4575H29.0104V31.064Z" fill="#002140"/>
<path d="M35.5719 31.064H32.1755V34.4575H35.5719V31.064Z" fill="#002140"/>
<path d="M42.1345 31.064H38.738V34.4575H42.1345V31.064Z" fill="#002140"/>
<path d="M48.6536 31.064H45.2572V34.4575H48.6536V31.064Z" fill="#002140"/>
<path d="M29.0104 37.5269H25.6139V40.9204H29.0104V37.5269Z" fill="#002140"/>
<path d="M35.5719 37.5269H32.1755V40.9204H35.5719V37.5269Z" fill="#002140"/>
<path d="M42.1345 37.5269H38.738V40.9204H42.1345V37.5269Z" fill="#002140"/>
<path d="M48.6536 37.5269H45.2572V40.9204H48.6536V37.5269Z" fill="#002140"/>
<path d="M29.0104 43.7925H25.6139V47.186H29.0104V43.7925Z" fill="#002140"/>
<path d="M35.5719 43.7925H32.1755V47.186H35.5719V43.7925Z" fill="#002140"/>
<path d="M42.1345 43.7925H38.738V47.186H42.1345V43.7925Z" fill="#002140"/>
<path d="M48.6536 43.7925H45.2572V47.186H48.6536V43.7925Z" fill="#002140"/>
<path d="M29.0104 50.2554H25.6139V53.6489H29.0104V50.2554Z" fill="#002140"/>
<path d="M35.5719 50.2554H32.1755V53.6489H35.5719V50.2554Z" fill="#002140"/>
<path d="M42.1345 50.2554H38.738V53.6489H42.1345V50.2554Z" fill="#002140"/>
<path d="M22.6174 37.5269H19.221V40.9204H22.6174V37.5269Z" fill="#002140"/>
<path d="M22.6174 43.7925H19.221V47.186H22.6174V43.7925Z" fill="#002140"/>
<path d="M22.6174 50.2554H19.221V53.6489H22.6174V50.2554Z" fill="#002140"/>
</svg>
